<svg width="24" height="24" viewBox="0 0 24 24" fill="none" xmlns="http://www.w3.org/2000/svg">
<path d="M9.3845 2.5V1.5H14.6155V2.5H9.3845ZM11.5 13.6155H12.5V8.3845H11.5V13.6155ZM12 21C10.8948 21 9.85733 20.7913 8.8875 20.374C7.91767 19.9567 7.06925 19.3846 6.34225 18.6578C5.61542 17.9307 5.04333 17.0823 4.626 16.1125C4.20867 15.1427 4 14.1052 4 13C4 11.8948 4.20867 10.8573 4.626 9.8875C5.04333 8.91767 5.61542 8.06925 6.34225 7.34225C7.06925 6.61542 7.91767 6.04333 8.8875 5.626C9.85733 5.20867 10.8948 5 12 5C12.9692 5 13.9063 5.17308 14.8115 5.51925C15.7167 5.86542 16.5474 6.35517 17.3038 6.9885L18.3962 5.89625L19.1038 6.60375L18.0115 7.69625C18.6448 8.45258 19.1346 9.28333 19.4808 10.1885C19.8269 11.0937 20 12.0308 20 13C20 14.1052 19.7913 15.1427 19.374 16.1125C18.9567 17.0823 18.3846 17.9307 17.6578 18.6578C16.9307 19.3846 16.0823 19.9567 15.1125 20.374C14.1427 20.7913 13.1052 21 12 21ZM12 20C13.9333 20 15.5833 19.3167 16.95 17.95C18.3167 16.5833 19 14.9333 19 13C19 11.0667 18.3167 9.41667 16.95 8.05C15.5833 6.68333 13.9333 6 12 6C10.0667 6 8.41667 6.68333 7.05 8.05C5.68333 9.41667 5 11.0667 5 13C5 14.9333 5.68333 16.5833 7.05 17.95C8.41667 19.3167 10.0667 20 12 20Z" fill="#121212"/>
</svg>
