<svg width="24" height="24" viewBox="0 0 24 24" fill="none" xmlns="http://www.w3.org/2000/svg">
<path d="M6.616 21C6.15533 21 5.771 20.846 5.463 20.538C5.155 20.23 5.00067 19.8457 5 19.385V8.615C5 8.155 5.15433 7.771 5.463 7.463C5.77167 7.155 6.156 7.00067 6.616 7H8.5V6.5C8.5 5.528 8.84033 4.70167 9.521 4.021C10.2017 3.34033 11.028 3 12 3C12.972 3 13.7983 3.34033 14.479 4.021C15.1597 4.70167 15.5 5.528 15.5 6.5V7H17.385C17.845 7 18.229 7.15433 18.537 7.463C18.845 7.77167 18.9993 8.156 19 8.616V19.385C19 19.845 18.8457 20.2293 18.537 20.538C18.2283 20.8467 17.8443 21.0007 17.385 21H6.616ZM6.616 20H17.385C17.5383 20 17.6793 19.936 17.808 19.808C17.9367 19.68 18.0007 19.5387 18 19.384V8.616C18 8.462 17.936 8.32067 17.808 8.192C17.68 8.06333 17.5387 7.99933 17.384 8H15.5V10.5C15.5 10.6427 15.4523 10.7617 15.357 10.857C15.2617 10.9523 15.1427 11 15 11C14.8573 11 14.7383 10.9523 14.643 10.857C14.5477 10.7617 14.5 10.6427 14.5 10.5V8H9.5V10.5C9.5 10.6427 9.45233 10.7617 9.357 10.857C9.26167 10.9523 9.14267 11 9 11C8.85733 11 8.73833 10.9523 8.643 10.857C8.54767 10.7617 8.5 10.6427 8.5 10.5V8H6.616C6.462 8 6.32067 8.064 6.192 8.192C6.06333 8.32 5.99933 8.46133 6 8.616V19.385C6 19.5383 6.064 19.6793 6.192 19.808C6.32 19.9367 6.461 20.0007 6.615 20M9.5 7H14.5V6.5C14.5 5.796 14.2593 5.20333 13.778 4.722C13.2967 4.24067 12.704 4 12 4C11.296 4 10.7033 4.24067 10.222 4.722C9.74067 5.20333 9.5 5.796 9.5 6.5V7Z" fill="white"/>
</svg>
