<svg width="127" height="24" viewBox="0 0 127 24" fill="none" xmlns="http://www.w3.org/2000/svg">
<path d="M7.88429 10.2307L11.9998 3.46143L16.1153 10.2307H7.88429ZM17.4998 21.2307C16.455 21.2307 15.572 20.8701 14.8508 20.1489C14.1296 19.4278 13.769 18.5448 13.769 17.4999C13.769 16.4551 14.1296 15.5721 14.8508 14.8509C15.572 14.1298 16.455 13.7692 17.4998 13.7692C18.5446 13.7692 19.4276 14.1298 20.1488 14.8509C20.87 15.5721 21.2305 16.4551 21.2305 17.4999C21.2305 18.5448 20.87 19.4278 20.1488 20.1489C19.4276 20.8701 18.5446 21.2307 17.4998 21.2307ZM3.76904 20.7307V14.2692H10.2305V20.7307H3.76904ZM17.4993 20.2307C18.2638 20.2307 18.9101 19.9668 19.4383 19.4389C19.9665 18.9111 20.2305 18.2649 20.2305 17.5004C20.2305 16.7359 19.9666 16.0896 19.4388 15.5614C18.911 15.0333 18.2648 14.7692 17.5003 14.7692C16.7358 14.7692 16.0895 15.0331 15.5613 15.5609C15.0331 16.0888 14.769 16.7349 14.769 17.4994C14.769 18.2639 15.033 18.9103 15.5608 19.4384C16.0886 19.9666 16.7348 20.2307 17.4993 20.2307ZM4.76904 19.7307H9.23054V15.2692H4.76904V19.7307ZM9.62679 9.23067H14.3728L11.9998 5.42693L9.62679 9.23067Z" fill="white"/>
</svg>
